<svg xmlns="http://www.w3.org/2000/svg" width="46" height="46" viewBox="0 0 46 46">
    <g data-name="Group 1114" transform="translate(-1450 -5640)">
        <circle data-name="Ellipse 1" cx="23" cy="23" r="23" transform="translate(1450 5640)" style="fill:#1e5abe"/>
        <path data-name="whatsapp (1)" d="M20.086 3.391A11.564 11.564 0 0 0 1.89 17.34L.25 23.331l6.129-1.608a11.549 11.549 0 0 0 5.521 1.408 11.566 11.566 0 0 0 8.178-19.74zm-8.178 17.787a9.6 9.6 0 0 1-4.891-1.339l-.351-.208-3.637.954L4 17.039l-.229-.364a9.609 9.609 0 1 1 8.14 4.5zm5.271-7.2c-.289-.145-1.709-.843-1.974-.94s-.457-.144-.65.145-.746.94-.915 1.133-.337.217-.626.072a7.89 7.89 0 0 1-2.323-1.434 8.714 8.714 0 0 1-1.607-2c-.168-.289 0-.431.127-.59a8.171 8.171 0 0 0 .722-.988.531.531 0 0 0-.024-.506c-.072-.145-.65-1.566-.89-2.145-.235-.563-.473-.487-.65-.5s-.361-.01-.554-.01a1.061 1.061 0 0 0-.77.362 3.24 3.24 0 0 0-1.011 2.41 5.619 5.619 0 0 0 1.18 2.988 12.876 12.876 0 0 0 4.935 4.362 16.535 16.535 0 0 0 1.647.609 3.96 3.96 0 0 0 1.819.114 2.976 2.976 0 0 0 1.95-1.374 2.414 2.414 0 0 0 .168-1.374c-.072-.12-.265-.193-.554-.337zm0 0" transform="translate(1460.75 5651)" style="fill:#fff;fill-rule:evenodd"/>
    </g>
</svg>
