<svg xmlns="http://www.w3.org/2000/svg" width="133.314" height="54.998" viewBox="0 0 133.314 54.998">
    <defs>
        <linearGradient id="0e4uqdbwga" x1=".5" y1=".163" x2=".5" y2=".866" gradientUnits="objectBoundingBox">
            <stop offset="0" stop-color="#b1e89d" stop-opacity="0"/>
            <stop offset="1" stop-color="#048f17"/>
        </linearGradient>
        <linearGradient id="60kcl5w6bb" x1=".5" y1=".16" x2=".5" y2=".869" gradientUnits="objectBoundingBox">
            <stop offset="0" stop-color="#ffe786" stop-opacity="0"/>
            <stop offset="1" stop-color="#ff9a00"/>
        </linearGradient>
    </defs>
    <g data-name="Political Works logo">
        <g data-name="Group 1115">
            <path data-name="Path 1085" d="M-2108.877-222.024v11.185a5.891 5.891 0 0 1-2.137 4.9v8.493a1.469 1.469 0 0 0-.072-.143 7.481 7.481 0 0 0-1.248-1.726v-6.967a.171.171 0 0 1 0-.043.66.66 0 0 1 .347-.543 3.123 3.123 0 0 0 .918-.9 5.209 5.209 0 0 0 .868-3.074v-11.185a1.759 1.759 0 0 0-1.757-1.757 1.761 1.761 0 0 0-1.762 1.757v2.492a.662.662 0 0 1-.66.662.662.662 0 0 1-.662-.662v-3.379a1.761 1.761 0 0 0-1.757-1.757 1.762 1.762 0 0 0-1.763 1.757v2.858a.662.662 0 0 1-.662.662.663.663 0 0 1-.662-.662v-3.265a1.758 1.758 0 0 0-1.757-1.757 1.762 1.762 0 0 0-1.761 1.757v2.875a.66.66 0 0 1-.662.662.661.661 0 0 1-.659-.662v-14.863a1.766 1.766 0 0 0-1.761-1.762 1.763 1.763 0 0 0-1.757 1.762v19.833a.663.663 0 0 1-.662.662.663.663 0 0 1-.662-.662v-4.061c-1.953.708-3.1 1.689-3.4 2.921-.774 3.169 3.881 7.707 5.867 9.645.246.242.462.452.636.629a.644.644 0 0 1 .181.37v.01a.508.508 0 0 1 .009.088v6.691c-.005 0-.009.007-.009.01a7.527 7.527 0 0 0-1.119 1.587 6.683 6.683 0 0 0-.191.389v-8.4c-.131-.131-.275-.268-.432-.425-2.332-2.273-7.179-7-6.23-10.907.437-1.79 2.014-3.138 4.682-4v-14.375a3.084 3.084 0 0 1 3.081-3.081 3.083 3.083 0 0 1 3.081 3.081v9.461a3.085 3.085 0 0 1 1.761-.554 3.079 3.079 0 0 1 2.583 1.4 3.058 3.058 0 0 1 2.261-1 3.08 3.08 0 0 1 2.751 1.707 3.086 3.086 0 0 1 2.091-.82 3.086 3.086 0 0 1 3.087 3.086z" transform="translate(2180.946 238.39)" style="fill:#003567"/>
            <path data-name="Path 1086" d="M-2089.546-224.282c-.409-.2-.477.864-.432 1.387a12.458 12.458 0 0 1-.114 2c-.068.636.159 1 .478 1.068s.636-.364.636-.818-.114-1.341-.159-2.25-.063-1.214-.409-1.387z" transform="translate(2144.289 226.729)" style="fill:#003567"/>
            <path data-name="Path 1087" d="M-2028.523-141.849v22.476a6.6 6.6 0 0 0-1.993-1.4 10.174 10.174 0 0 0-2.636-.786v-20.283z" transform="translate(2097.133 158.45)" style="fill:url(#0e4uqdbwga)"/>
            <path data-name="Path 1088" d="M-2082.673-141.849v20.309a10.206 10.206 0 0 0-2.49.76 6.623 6.623 0 0 0-2.134 1.537c-.005 0-.009.007-.009.01v-22.617z" transform="translate(2141.972 158.45)" style="fill:url(#60kcl5w6bb)"/>
            <path data-name="Path 1089" d="M-2388.468-223.831q-2.232-1.648-6.784-1.647-.568 0-1.947.029t-2.875.031q-1.437 0-2.86-.031t-2.292-.06v.6a4.075 4.075 0 0 1 1.364.224 1.044 1.044 0 0 1 .614.719 6.492 6.492 0 0 1 .149 1.634v14.855a6.494 6.494 0 0 1-.149 1.616 1.008 1.008 0 0 1-.6.719 4.822 4.822 0 0 1-1.379.241v.6q1.228-.031 2.607-.06t2.754-.029q1.857 0 3.5.029t2.665.06v-.69a9.3 9.3 0 0 1-2.1-.179 1.332 1.332 0 0 1-.973-.779 4.925 4.925 0 0 1-.255-1.828v-5.09h1.107a15.132 15.132 0 0 0 4.748-.629 8.038 8.038 0 0 0 2.949-1.632 5.816 5.816 0 0 0 1.529-2.187 6.377 6.377 0 0 0 .449-2.261 5.066 5.066 0 0 0-2.221-4.255zm-4.342 7.427a4.251 4.251 0 0 1-1.078 2.127 3.115 3.115 0 0 1-2.321.808h-.808v-8.864a4.673 4.673 0 0 1 .3-2.067q.3-.508 1.317-.509a2.268 2.268 0 0 1 2.232 1.407 10.749 10.749 0 0 1 .643 4.254 13.487 13.487 0 0 1-.285 2.848z" transform="translate(2405.225 227.724)" style="fill:#003567"/>
            <path data-name="Path 1090" d="M-2280.827-195.025a9.625 9.625 0 0 1 4.058.794 5.706 5.706 0 0 1 2.68 2.591 10.29 10.29 0 0 1 .958 4.822 10.29 10.29 0 0 1-.958 4.822 5.627 5.627 0 0 1-2.68 2.576 9.785 9.785 0 0 1-4.058.778 9.807 9.807 0 0 1-4.043-.778 5.609 5.609 0 0 1-2.7-2.576 10.284 10.284 0 0 1-.958-4.822 10.284 10.284 0 0 1 .958-4.822 5.687 5.687 0 0 1 2.7-2.591 9.646 9.646 0 0 1 4.043-.794zm0 .6q-.9 0-1.5 1.8a20.124 20.124 0 0 0-.6 5.81 19.957 19.957 0 0 0 .6 5.8q.6 1.782 1.5 1.782t1.5-1.782a19.965 19.965 0 0 0 .6-5.8 20.133 20.133 0 0 0-.6-5.81q-.602-1.801-1.5-1.801z" transform="translate(2308.591 202.482)" style="fill:#003567"/>
            <path data-name="Path 1091" d="M-2185.139-238.393v20.635a2.787 2.787 0 0 0 .375 1.707 1.616 1.616 0 0 0 1.3.449v.629q-.6-.029-1.8-.075t-2.456-.045q-1.258 0-2.545.045t-1.947.075v-.629a1.618 1.618 0 0 0 1.3-.449 2.79 2.79 0 0 0 .375-1.707V-234.8a4.236 4.236 0 0 0-.36-1.992 1.375 1.375 0 0 0-1.318-.644v-.629q.958.09 1.857.09 1.5 0 2.8-.1a22.809 22.809 0 0 0 2.419-.318z" transform="translate(2228.836 238.393)" style="fill:#003567"/>
            <path data-name="Path 1092" d="M-1975.468-220.8v4.852h2.935v.6h-2.935v12.429a1.293 1.293 0 0 0 .21.824.843.843 0 0 0 .689.254 2.008 2.008 0 0 0 .779-.195 2.255 2.255 0 0 0 .839-.674l.449.36a4.907 4.907 0 0 1-1.662 1.722 4.818 4.818 0 0 1-2.591.644 5.829 5.829 0 0 1-1.782-.254 3.17 3.17 0 0 1-1.3-.764 3.02 3.02 0 0 1-.839-1.632 14.42 14.42 0 0 1-.18-2.531v-10.185h-2.276v-.6h2.276v-3.534a12.328 12.328 0 0 0 2.89-.315 9.441 9.441 0 0 0 2.498-1.001z" transform="translate(2055.714 223.826)" style="fill:#003567"/>
            <path data-name="Path 1093" d="M-1910.754-230.846v13.088a2.788 2.788 0 0 0 .374 1.707 1.617 1.617 0 0 0 1.3.449v.629q-.6-.029-1.8-.075t-2.456-.045q-1.258 0-2.546.045t-1.947.075v-.629a1.618 1.618 0 0 0 1.3-.449 2.79 2.79 0 0 0 .374-1.707v-9.494a4.24 4.24 0 0 0-.359-1.992 1.376 1.376 0 0 0-1.318-.644v-.629q.958.09 1.857.09 1.5 0 2.8-.1a22.849 22.849 0 0 0 2.421-.319zm-2.875-7.547a3.936 3.936 0 0 1 2.411.644 2.267 2.267 0 0 1 .854 1.932 2.266 2.266 0 0 1-.854 1.932 3.934 3.934 0 0 1-2.411.644 3.933 3.933 0 0 1-2.411-.644 2.266 2.266 0 0 1-.853-1.932 2.266 2.266 0 0 1 .853-1.932 3.936 3.936 0 0 1 2.411-.644z" transform="translate(2001.631 238.393)" style="fill:#003567"/>
            <path data-name="Path 1094" d="M-1851.083-195.025a9.161 9.161 0 0 1 2.336.27 6.365 6.365 0 0 1 1.617.629 3.789 3.789 0 0 1 1.3 1.273 3.413 3.413 0 0 1 .494 1.842 2.862 2.862 0 0 1-.809 2.066 2.745 2.745 0 0 1-2.067.838 2.69 2.69 0 0 1-2.037-.749 2.694 2.694 0 0 1-.719-1.947 2.742 2.742 0 0 1 .734-1.932 3.607 3.607 0 0 1 1.722-1.063 2.109 2.109 0 0 0-.494-.255 2.059 2.059 0 0 0-.7-.1 2.431 2.431 0 0 0-1.752.644 4.289 4.289 0 0 0-1.048 1.692 10.535 10.535 0 0 0-.524 2.246 18.783 18.783 0 0 0-.15 2.336 7.6 7.6 0 0 0 .569 3.264 3.4 3.4 0 0 0 1.438 1.617 3.752 3.752 0 0 0 1.737.449 5.843 5.843 0 0 0 1.617-.315 4.18 4.18 0 0 0 2.007-1.692l.509.18a8.86 8.86 0 0 1-1.153 2.381 6.488 6.488 0 0 1-2.052 1.947 5.78 5.78 0 0 1-3.055.763 8.347 8.347 0 0 1-3.639-.778 5.793 5.793 0 0 1-2.606-2.576 10.152 10.152 0 0 1-.973-4.822 9.508 9.508 0 0 1 1.018-4.687 6.311 6.311 0 0 1 2.77-2.665 8.8 8.8 0 0 1 3.91-.856z" transform="translate(1952.742 202.482)" style="fill:#003567"/>
            <path data-name="Path 1095" d="M-1768.7-178.852a3.636 3.636 0 0 1-2.95-1.093 3.828 3.828 0 0 1-.913-2.531 3.563 3.563 0 0 1 .569-2.1 4.4 4.4 0 0 1 1.482-1.318 11.583 11.583 0 0 1 1.932-.854q1.018-.344 1.932-.674a5.533 5.533 0 0 0 1.482-.764 1.35 1.35 0 0 0 .569-1.123v-2.666a3.809 3.809 0 0 0-.165-1.048 2.154 2.154 0 0 0-.614-.988 1.913 1.913 0 0 0-1.348-.419 3.064 3.064 0 0 0-.913.135 2.6 2.6 0 0 0-.764.375 3.068 3.068 0 0 1 1.528 1.093 2.686 2.686 0 0 1 .479 1.542 2.311 2.311 0 0 1-.838 1.887 3.017 3.017 0 0 1-1.977.689 2.341 2.341 0 0 1-1.857-.749 2.707 2.707 0 0 1-.659-1.857 2.616 2.616 0 0 1 .464-1.572 4.41 4.41 0 0 1 1.393-1.183 6.767 6.767 0 0 1 2.156-.734 14.972 14.972 0 0 1 2.635-.225 12.358 12.358 0 0 1 2.725.285 4.246 4.246 0 0 1 2.156 1.213 3.135 3.135 0 0 1 .809 1.647 14.692 14.692 0 0 1 .18 2.546v8.026a3.257 3.257 0 0 0 .1 1.018.377.377 0 0 0 .374.269.823.823 0 0 0 .464-.15q.225-.149.434-.3l.3.509a4.152 4.152 0 0 1-1.632.839 7.653 7.653 0 0 1-2.051.269 3.578 3.578 0 0 1-2.591-.689 2.51 2.51 0 0 1-.7-1.587 4.964 4.964 0 0 1-1.617 1.632 4.737 4.737 0 0 1-2.574.65zm2.995-2.4a1.516 1.516 0 0 0 .584-.1 1.512 1.512 0 0 0 .524-.4v-6.319a3.641 3.641 0 0 1-.749.943q-.449.4-.884.869a3.822 3.822 0 0 0-.719 1.138 4.458 4.458 0 0 0-.284 1.722 2.506 2.506 0 0 0 .434 1.677 1.412 1.412 0 0 0 1.091.474z" transform="translate(1881.352 202.482)" style="fill:#003567"/>
            <path data-name="Path 1096" d="M-1673.711-238.393v20.635a2.787 2.787 0 0 0 .374 1.707 1.616 1.616 0 0 0 1.3.449v.629q-.6-.029-1.8-.075t-2.456-.045q-1.258 0-2.546.045t-1.947.075v-.629a1.618 1.618 0 0 0 1.3-.449 2.79 2.79 0 0 0 .375-1.707V-234.8a4.24 4.24 0 0 0-.359-1.992 1.376 1.376 0 0 0-1.318-.644v-.629q.958.09 1.857.09 1.5 0 2.8-.1a22.822 22.822 0 0 0 2.42-.318z" transform="translate(1805.348 238.393)" style="fill:#003567"/>
            <path data-name="Path 1097" d="M-2259.5-47.074q-.643.031-1.256.031-1.041 0-1.945-.031t-2.067-.061v.612a2.748 2.748 0 0 1 1.93.72 3.169 3.169 0 0 1 .735 2.266 14.429 14.429 0 0 1-.827 4.3l-2.361 7.55-4.04-12.266a3.815 3.815 0 0 1-.291-1.608.875.875 0 0 1 .6-.735 4.712 4.712 0 0 1 1.47-.23v-.612q-.766.031-2.037.061t-2.71.031q-1.44 0-2.848-.031t-2.45-.061v.612a1.634 1.634 0 0 1 .919.337 2.165 2.165 0 0 1 .643 1.1l2.08 6.349-2.691 7.287-4.442-12.5a5.555 5.555 0 0 1-.23-1.026 2.041 2.041 0 0 1 .092-1.011.831.831 0 0 1 .689-.536v-.612q-.643.031-1.684.061t-2.389.031q-1.348 0-2.833-.031t-2.588-.061v.612a1.629 1.629 0 0 1 .919.46 3.723 3.723 0 0 1 .888 1.5l7.1 19.11q.368-.03.781-.046c.276-.01.546-.015.812-.015q.428 0 .842.015t.781.046l4.312-12.173 3.988 12.173q.368-.03.781-.046t.812-.015q.428 0 .842.015t.781.046l5.145-16.783a9.414 9.414 0 0 1 1.378-2.97 4.435 4.435 0 0 1 1.47-1.317v-.612q-.456.038-1.101.064z" transform="translate(2309.839 80.022)" style="fill:#003567"/>
            <path data-name="Path 1098" d="M-2077.386-12.473a.01.01 0 0 0 0-.007.152.152 0 0 0-.014-.028 5.838 5.838 0 0 0-2.741-2.65 8.417 8.417 0 0 0-1.874-.6 10.371 10.371 0 0 0-1.044-.153q-.593-.059-1.231-.058t-1.235.06a10.253 10.253 0 0 0-1.169.182 8.591 8.591 0 0 0-1.732.569 5.817 5.817 0 0 0-2.756 2.65 6.267 6.267 0 0 0-.136.272.092.092 0 0 0-.009.019 11.008 11.008 0 0 0-.836 4.639 11 11 0 0 0 .844 4.66c.043.093.089.184.136.272a5.733 5.733 0 0 0 2.756 2.633 9.2 9.2 0 0 0 2.9.736 11.994 11.994 0 0 0 1.238.06q.64 0 1.235-.058a9.135 9.135 0 0 0 2.915-.738 5.753 5.753 0 0 0 2.741-2.633c.022-.041.043-.083.063-.126a10.711 10.711 0 0 0 .917-4.806 10.574 10.574 0 0 0-.968-4.895zm-5.377 10.823q-.614 1.821-1.531 1.821t-1.532-1.821a20.4 20.4 0 0 1-.612-5.927 20.565 20.565 0 0 1 .612-5.941q.611-1.836 1.532-1.836t1.531 1.836a20.62 20.62 0 0 1 .612 5.941 20.454 20.454 0 0 1-.612 5.926z" transform="translate(2145.996 54.215)" style="fill:#003567"/>
            <path data-name="Path 1099" d="M-1977.608-15.967a2.742 2.742 0 0 1 1.715.475 2.511 2.511 0 0 1 .858 1.194 4.408 4.408 0 0 1 .245 1.424 3.025 3.025 0 0 1-.781 2.19 2.7 2.7 0 0 1-2.037.812 2.978 2.978 0 0 1-2.037-.613 2.031 2.031 0 0 1-.689-1.592 3.058 3.058 0 0 1 .444-1.715 4.073 4.073 0 0 1 1.118-1.133 2.164 2.164 0 0 0-.98.214 2.948 2.948 0 0 0-.9.628 3.238 3.238 0 0 0-.659.949 2.728 2.728 0 0 0-.245 1.149V-2.8a2.545 2.545 0 0 0 .612 1.991 3.115 3.115 0 0 0 2.021.521v.644q-.7-.03-2.1-.076t-2.864-.046q-1.378 0-2.787.046t-2.113.076v-.643a1.655 1.655 0 0 0 1.332-.459 2.856 2.856 0 0 0 .383-1.746V-12.2a4.335 4.335 0 0 0-.367-2.037 1.407 1.407 0 0 0-1.347-.658v-.643q.979.092 1.9.092 1.531 0 2.863-.107a23.327 23.327 0 0 0 2.465-.322v2.205a4.153 4.153 0 0 1 .98-1.3 3.813 3.813 0 0 1 1.332-.75 5.254 5.254 0 0 1 1.638-.247z" transform="translate(2060.393 54.213)" style="fill:#003567"/>
            <path data-name="Path 1100" d="M-1889.76-37.7q-.275-.444-.521-.9l-4.867-9.251.794-.794a15.787 15.787 0 0 1 2.3-1.929 7.7 7.7 0 0 1 2.235-1.072v-.612q-.4.031-1.148.046l-1.577.031q-.827.016-1.47.015-.735 0-1.761-.031t-1.914-.061v.612a3.1 3.1 0 0 1 1.791.674 1.783 1.783 0 0 1 .674 1.455 2.748 2.748 0 0 1-1.087 1.853l-2.358 2.205a1.328 1.328 0 0 1-.674.383 3.8 3.8 0 0 1-.643.069v-15.307a23.342 23.342 0 0 1-2.465.321q-1.332.108-2.864.107-.919 0-1.9-.092v.643a1.406 1.406 0 0 1 1.347.658 4.333 4.333 0 0 1 .367 2.037v17.426a2.854 2.854 0 0 1-.383 1.746 1.655 1.655 0 0 1-1.332.459v.643q.673-.03 1.99-.076t2.6-.046q1.286 0 2.511.046t1.837.076v-.643a1.653 1.653 0 0 1-1.332-.459 2.851 2.851 0 0 1-.383-1.746v-5.2a1.487 1.487 0 0 1 .49.116 1.108 1.108 0 0 1 .49.551l2.695 5.7a.723.723 0 0 1 .046.766.956.956 0 0 1-.812.276v.643q.612-.03 1.853-.076t2.465-.046q1.072 0 2.129.046t1.577.076v-.643a1.971 1.971 0 0 1-.7-.695z" transform="translate(1992.849 90.935)" style="fill:#003567"/>
            <path data-name="Path 1101" d="M-1789.132-15.967a8.738 8.738 0 0 1 2.374.291 8.17 8.17 0 0 1 1.485.536q1.072.643 1.317-.8h.612q-.062.889-.092 2.159t-.031 3.353h-.612a9.168 9.168 0 0 0-.536-2.236 4.783 4.783 0 0 0-1.195-1.837 2.85 2.85 0 0 0-2.036-.735 1.875 1.875 0 0 0-1.286.459 1.588 1.588 0 0 0-.521 1.256 2.623 2.623 0 0 0 .551 1.638 7.546 7.546 0 0 0 1.409 1.378q.857.659 1.715 1.393a16.86 16.86 0 0 1 2.358 2.266 4.378 4.378 0 0 1 .949 2.909 3.857 3.857 0 0 1-.842 2.45 5.564 5.564 0 0 1-2.236 1.669 7.816 7.816 0 0 1-3.108.6 6.769 6.769 0 0 1-1.868-.23 5.124 5.124 0 0 1-1.286-.536q-.49-.245-.842-.383a1.886 1.886 0 0 0-.689-.138.618.618 0 0 0-.52.322 2.639 2.639 0 0 0-.337.75h-.613q.061-.98.092-2.389t.031-3.736h.613a10.24 10.24 0 0 0 .72 2.879 5.238 5.238 0 0 0 1.377 1.979 2.9 2.9 0 0 0 1.945.72 1.974 1.974 0 0 0 1.24-.414 1.5 1.5 0 0 0 .536-1.271 3.3 3.3 0 0 0-.811-2.266 25.6 25.6 0 0 0-2.037-2.021q-.919-.857-1.73-1.669a7.625 7.625 0 0 1-1.332-1.776 4.47 4.47 0 0 1-.521-2.159 3.577 3.577 0 0 1 .812-2.358 5.289 5.289 0 0 1 2.128-1.516 7.406 7.406 0 0 1 2.817-.537z" transform="translate(1899.939 54.213)" style="fill:#003567"/>
        </g>
    </g>
</svg>
