<svg xmlns="http://www.w3.org/2000/svg" width="46" height="46" viewBox="0 0 46 46">
    <g data-name="Group 972" transform="translate(-1699 -41)">
        <circle data-name="Ellipse 4" cx="23" cy="23" r="23" transform="translate(1699 41)" style="fill:#1e5abe"/>
        <path data-name="Path 1081" d="M2.488-511.77a3.114 3.114 0 0 0-2 1.561 2.984 2.984 0 0 0 .53 3.4 2.929 2.929 0 0 0 4.231 0 2.96 2.96 0 0 0 .531-3.391 3.194 3.194 0 0 0-1.325-1.325 3 3 0 0 0-1.967-.245z" transform="translate(1710.619 561.969)" style="fill:#fff"/>
        <path data-name="Path 1082" d="M189.7-349.668a5.42 5.42 0 0 0-3.537 2.265l-.227.337-.014-1.147-.01-1.142H181v16.482h5.108v-4.327c0-2.689.019-4.53.053-4.872.164-1.759.819-2.737 2.053-3.065a4.061 4.061 0 0 1 1.6-.053 2.016 2.016 0 0 1 1.576 1.2c.434.906.458 1.224.458 6.636v4.477h5.108v-4.954c0-2.834-.019-5.239-.048-5.624-.164-2.27-.66-3.716-1.634-4.757a4.918 4.918 0 0 0-2.7-1.4 11.977 11.977 0 0 0-2.874-.056z" transform="translate(1538.517 407.669)" style="fill:#fff"/>
        <path data-name="Path 1083" d="M8.034-341.8c-.019.014-.034 3.725-.034 8.241v8.207h5.157l-.01-8.231-.014-8.227-2.535-.014c-1.398-.005-2.55.005-2.564.024z" transform="translate(1703.179 400.149)" style="fill:#fff"/>
    </g>
</svg>
