<svg xmlns="http://www.w3.org/2000/svg" width="158.909" height="57.272" viewBox="0 0 158.909 57.272">
    <path data-name="Path 586" d="M191.495-268.425a.842.842 0 0 0-.512.776c0 .679.2.744 5.318 1.262 17.175 1.747 33.327 7.862 40.772 15.432 3.191 3.268 4.412 5.5 4.648 8.541.315 4.465-1.852 8.347-7.209 12.779a41.354 41.354 0 0 1-12.33 7.247c-13.2 5.371-29.151 7.959-51.723 8.315-15.8.259-27.654-.55-39.669-2.653-20.248-3.591-35.336-10.515-40.063-18.376-1.458-2.394-1.5-2.556-1.261-4.982.591-6.438 7.721-13.2 18.594-17.632a108.559 108.559 0 0 1 25.015-6.373c19.421-2.685 43.451-1.068 60.193 4.076 2.836.841 3.821 1.035 4.215.744.945-.647.2-1.262-2.876-2.232-11.582-3.623-24.188-5.468-39.472-5.759-15.442-.291-26.709.971-38.8 4.27-14.26 3.915-23.912 9.867-28.166 17.341-3.506 6.212-2.048 11.517 4.727 17.114 14.379 11.841 46.287 18.506 82.1 17.147 31.672-1.2 52.433-7.02 63.975-17.923 4.57-4.335 7.091-10.612 6.027-14.85-2.442-9.415-16.388-18.247-34.9-22.064-6.076-1.262-17.264-2.556-18.603-2.2z" transform="translate(-86.324 268.485)" style="fill:#1e5abe"/>
</svg>
